PathFileType	4	(X/Y/Z)	/Users/itak/Documents/Research/Walk-IL/dataset/trc/00535_00009.trc
DataRate	CameraRate	NumFrames	NumMarkers	Units	OrigDataRate	OrigDataStartFrame	OrigNumFrames
100.000000	100.000000	4	53	mm	100.000000	398	797
Frame#	Time	RPSI			LPSI			L3			STRN			T10			C7			CLAV			RBAK			LBAK			LSHO			LUPA			LAEL			LAOL			LWTS			LWPS			LFRA			LIFD			LHPS			LHTS			RSHO			RUPA			RAEL			RAOL			RWTS			RWPS			RFRA			RIFD			RHTS			RHPS			RBHD			LFHD			RFHD			LBHD			LHIP			RHIP			RASI			LASI			LKNE			LTHI			LANK			LTIP			LTOE			LMT1			LMT5			LHEE			RKNE			RTHI			RANK			RTIP			RTOE			RMT1			RMT5			RHEE			
		X1	Y1	Z1	X2	Y2	Z2	X3	Y3	Z3	X4	Y4	Z4	X5	Y5	Z5	X6	Y6	Z6	X7	Y7	Z7	X8	Y8	Z8	X9	Y9	Z9	X10	Y10	Z10	X11	Y11	Z11	X12	Y12	Z12	X13	Y13	Z13	X14	Y14	Z14	X15	Y15	Z15	X16	Y16	Z16	X17	Y17	Z17	X18	Y18	Z18	X19	Y19	Z19	X20	Y20	Z20	X21	Y21	Z21	X22	Y22	Z22	X23	Y23	Z23	X24	Y24	Z24	X25	Y25	Z25	X26	Y26	Z26	X27	Y27	Z27	X28	Y28	Z28	X29	Y29	Z29	X30	Y30	Z30	X31	Y31	Z31	X32	Y32	Z32	X33	Y33	Z33	X34	Y34	Z34	X35	Y35	Z35	X36	Y36	Z36	X37	Y37	Z37	X38	Y38	Z38	X39	Y39	Z39	X40	Y40	Z40	X41	Y41	Z41	X42	Y42	Z42	X43	Y43	Z43	X44	Y44	Z44	X45	Y45	Z45	X46	Y46	Z46	X47	Y47	Z47	X48	Y48	Z48	X49	Y49	Z49	X50	Y50	Z50	X51	Y51	Z51	X52	Y52	Z52	X53	Y53	Z53	

399	3.98	68.28465270996094	1005.984069824219	380.1033630371094	91.46925354003906	1014.722106933594	248.9638671875	85.931640625	1106.287475585938	316.2052001953125	315.0746154785156	1290.479614257812	336.7864990234375	74.62169647216797	1231.482299804688	316.2405395507812	123.2068252563477	1504.524536132812	332.1915283203125	296.6642150878906	1401.640014648438	334.3867797851562	46.19982528686523	1382.3828125	416.8350219726562	94.35659790039062	1450.614013671875	238.6142730712891	199.9166870117188	1473.127807617188	164.6921539306641	202.5447540283203	1348.338012695312	83.40865325927734	245.2766571044922	1130.951049804688	56.80617904663086	153.8208923339844	1111.659790039062	97.27250671386719	368.6619567871094	905.3660888671875	107.7189331054688	332.7132263183594	876.5670776367188	33.27595901489258	279.8048400878906	1049.19140625	51.03435516357422	397.5053100585938	737.3433837890625	100.6965637207031	351.6237487792969	819.1121826171875	41.46041488647461	399.3734741210938	833.0233154296875	87.81293487548828	174.2524719238281	1468.595336914062	490.7540588378906	153.0163269042969	1405.294311523438	558.4490966796875	151.7128295898438	1117.536376953125	611.8689575195312	96.53677368164062	1097.465698242188	584.2882080078125	298.3346862792969	907.039306640625	580.535888671875	253.9956512451172	885.1757202148438	645.7922973632812	163.4322662353516	1063.356323242188	620.6881103515625	324.8887329101562	737.0874633789062	588.578369140625	334.9851379394531	819.76318359375	599.5897827148438	279.0958862304688	813.361328125	647.3970336914062	192.6652221679688	1680.260375976562	400.6417846679688	357.7333984375	1709.903686523438	277.5583190917969	329.3458251953125	1707.40771484375	418.9755859375	232.3240509033203	1681.50048828125	240.1661834716797	238.5488586425781	942.0738525390625	137.0483856201172	171.0994110107422	932.11474609375	518.26220703125	266.0649108886719	964.0819091796875	476.7605590820312	308.1139526367188	964.251953125	204.2552490234375	276.1396484375	497.1908569335938	235.1345062255859	273.4919738769531	660.0733642578125	186.2022552490234	218.6634521484375	30.89281463623047	277.8829956054688	229.6272430419922	248.4636535644531	248.6149597167969	416.0199279785156	41.8403434753418	371.87890625	339.4653015136719	46.64959335327148	392.1775207519531	341.5874633789062	36.34519195556641	283.9141235351562	142.4405364990234	37.31253433227539	317.9749145507812	232.8271636962891	492.3252258300781	524.0089721679688	219.9566345214844	783.4586181640625	529.7965087890625	-112.7767181396484	152.9763488769531	475.3432006835938	158.1089477539062	365.381591796875	508.4733276367188	83.99957275390625	54.20071792602539	460.9721984863281	34.72119522094727	85.97515869140625	413.7481079101562	-3.200624942779541	84.30812072753906	509.3013610839844	-153.2754821777344	178.8024749755859	412.132080078125	
400	3.99	72.31021118164062	1006.216430664062	380.9204711914062	95.13611602783203	1014.972717285156	249.70458984375	90.073974609375	1106.651000976562	316.7608947753906	319.3928527832031	1290.614868164062	337.128662109375	78.87796020507812	1231.804809570312	316.6560363769531	127.8069229125977	1504.778930664062	332.5028381347656	301.1592102050781	1401.8056640625	334.8565063476562	50.70771789550781	1382.748168945312	417.2129516601562	98.99652099609375	1450.893798828125	238.7863311767578	204.7419586181641	1473.339965820312	165.0894927978516	208.4337463378906	1348.554443359375	83.95621490478516	253.7669219970703	1131.585205078125	57.83267974853516	162.1364288330078	1111.385864257812	97.49997711181641	378.6005554199219	906.9266967773438	109.5959701538086	343.6189575195312	878.0261840820312	34.74769592285156	289.0560913085938	1050.124633789062	52.30740737915039	408.7748107910156	739.0942993164062	102.4657363891602	362.8139038085938	820.6486206054688	43.00996398925781	410.0256042480469	834.8213500976562	89.85715484619141	178.7844696044922	1468.918579101562	491.101318359375	157.4995880126953	1405.70458984375	558.8355712890625	156.1134796142578	1118.007446289062	612.6072387695312	100.9883193969727	1097.877197265625	585.175537109375	303.5467529296875	908.1717529296875	581.0465698242188	259.2453918457031	886.0205078125	646.3008422851562	168.0081939697266	1063.877197265625	621.4525146484375	330.8973388671875	738.3639526367188	588.96630859375	340.5866394042969	821.05517578125	600.03759765625	284.7779846191406	814.361328125	647.8800048828125	197.4906463623047	1680.522094726562	400.9859008789062	362.5706481933594	1709.8876953125	277.9048461914062	334.1797790527344	1707.471923828125	419.3457946777344	237.155517578125	1681.653686523438	240.5127563476562	241.1356353759766	942.299072265625	137.2353973388672	175.8372039794922	932.6522216796875	518.8688354492188	270.4055786132812	964.6468505859375	476.6984252929688	311.6353454589844	964.122314453125	204.0906982421875	277.0322570800781	496.8484802246094	235.3023681640625	275.2311096191406	659.7386474609375	186.2068176269531	218.6595764160156	30.99843597412109	277.9402770996094	229.8297424316406	248.3081970214844	248.7064514160156	416.0612182617188	41.76581954956055	371.8869323730469	339.4997253417969	46.58470916748047	392.1165161132812	341.5844421386719	36.3785514831543	283.9114379882812	142.4082641601562	37.29917907714844	318.0436096191406	242.9809722900391	493.5919799804688	525.0086059570312	226.0897521972656	784.4054565429688	530.8547973632812	-96.46985626220703	148.5977478027344	480.8251953125	170.2766571044922	365.5660400390625	510.8756408691406	102.9798355102539	54.55661773681641	472.0375671386719	53.16126251220703	82.67276000976562	423.0494995117188	14.51159000396729	84.27935028076172	518.5729370117188	-137.0823516845703	170.9852752685547	416.4228210449219	
401	4	76.26442718505859	1006.439880371094	381.823486328125	98.67478942871094	1015.2177734375	250.5273284912109	94.13106536865234	1106.996704101562	317.38427734375	323.6765747070312	1290.711181640625	337.4501037597656	83.09587097167969	1232.111206054688	317.0931091308594	132.3899993896484	1505.026245117188	332.8356628417969	305.6364440917969	1401.93896484375	335.3137817382812	55.17551803588867	1383.10400390625	417.6033325195312	103.6230392456055	1451.172607421875	238.9745178222656	209.5376434326172	1473.5625	165.4950866699219	214.22265625	1348.792114257812	84.52007293701172	262.0509948730469	1132.242309570312	58.88482284545898	170.2882843017578	1111.168212890625	97.81328582763672	388.321533203125	908.5169677734375	111.4978332519531	354.2376098632812	879.4920654296875	36.29799652099609	298.0899658203125	1051.079345703125	53.61859130859375	419.7822265625	740.8698120117188	104.3249740600586	373.7295227050781	822.2109985351562	44.64191055297852	420.4200744628906	836.6420288085938	91.94454193115234	183.3140258789062	1469.193725585938	491.4645690917969	161.9594573974609	1406.063232421875	559.2274780273438	160.3468780517578	1118.443115234375	613.3408203125	105.30029296875	1098.259033203125	586.0538330078125	308.6097717285156	909.2357788085938	581.5513916015625	264.3577880859375	886.7982788085938	646.794921875	172.4649353027344	1064.34326171875	622.1995239257812	336.77490234375	739.5952758789062	589.3446044921875	346.0490112304688	822.2915649414062	600.4808349609375	290.2762451171875	815.289794921875	648.35888671875	202.2644348144531	1680.737182617188	401.3825988769531	367.3527221679688	1709.881958007812	278.2949523925781	338.9712524414062	1707.51611328125	419.7682800292969	241.9317169189453	1681.802978515625	240.9002685546875	243.7001342773438	942.388671875	137.5102691650391	180.5554809570312	933.1597900390625	519.5194091796875	274.7032470703125	965.1646728515625	476.6123657226562	315.0223388671875	963.9951782226562	203.8780670166016	278.126708984375	496.5462036132812	235.4898681640625	277.0359191894531	659.4262084960938	186.2377471923828	218.6734466552734	31.11249923706055	277.9924621582031	230.1406860351562	248.166259765625	248.8477630615234	416.120361328125	41.69801330566406	371.8841552734375	339.5389404296875	46.53349304199219	392.0625915527344	341.5854797363281	36.40712356567383	283.90625	142.4164276123047	37.27731323242188	318.1427307128906	253.0154418945312	494.8953247070312	525.8200073242188	232.2160339355469	785.3258666992188	531.8677368164062	-79.52603912353516	143.6343231201172	486.2805480957031	182.5110778808594	365.7341613769531	513.1560668945312	122.612548828125	54.95320510864258	482.2628784179688	72.18660736083984	79.47804260253906	431.8128662109375	32.81047058105469	83.79784393310547	527.0514526367188	-120.2983627319336	162.7326202392578	420.9482727050781	
402	4.01	80.14134979248047	1006.649230957031	382.8010864257812	102.1003875732422	1015.450256347656	251.4128875732422	98.09957122802734	1107.324340820312	318.0630798339844	327.9272766113281	1290.766479492188	337.7545166015625	87.26382446289062	1232.401733398438	317.5497436523438	136.9591674804688	1505.265869140625	333.1885375976562	310.09619140625	1402.0361328125	335.7608337402344	59.59989929199219	1383.453369140625	418.0032958984375	108.2390823364258	1451.454345703125	239.1777648925781	214.3086090087891	1473.78662109375	165.9086761474609	219.916015625	1349.041748046875	85.09804534912109	270.1251831054688	1132.907958984375	59.95162582397461	178.2681579589844	1110.992309570312	98.19615936279297	397.8061828613281	910.1213989257812	113.4329299926758	364.563232421875	880.9424438476562	37.93165588378906	306.8999633789062	1052.039184570312	54.95935440063477	430.5447082519531	742.6669921875	106.2938766479492	384.3778686523438	823.78515625	46.36294555664062	430.5562133789062	838.4803466796875	94.08811950683594	187.8432769775391	1469.421508789062	491.843505859375	166.4034729003906	1406.369873046875	559.6258544921875	164.4330291748047	1118.841186523438	614.064697265625	109.4961853027344	1098.605346679688	586.910400390625	313.5201721191406	910.2096557617188	582.0529174804688	269.3360900878906	887.4990234375	647.280029296875	176.8157958984375	1064.749877929688	622.925537109375	342.5003967285156	740.7533569335938	589.7205810546875	351.358642578125	823.4453735351562	600.9271240234375	295.5866088867188	816.1326904296875	648.8365478515625	206.9903259277344	1680.902709960938	401.830322265625	372.0854797363281	1709.884521484375	278.726318359375	343.7262878417969	1707.5390625	420.23779296875	246.6566619873047	1681.9423828125	241.3287200927734	246.3401031494141	942.2665405273438	137.8486938476562	185.2493133544922	933.638671875	520.1988525390625	278.9558410644531	965.6375122070312	476.5083618164062	318.2891845703125	963.8773803710938	203.6235504150391	279.4216613769531	496.283447265625	235.6916656494141	278.9166870117188	659.14208984375	186.3194122314453	218.7015991210938	31.23241806030273	278.0422668457031	230.5639801025391	248.0469512939453	249.0319061279297	416.1932067871094	41.63974761962891	371.8766174316406	339.5821838378906	46.49838256835938	392.0212707519531	341.590576171875	36.43088531494141	283.9002990722656	142.4646148681641	37.25243377685547	318.2745361328125	262.9337463378906	496.2289428710938	526.464111328125	238.3294067382812	786.2234497070312	532.8272094726562	-61.94149398803711	138.1540679931641	491.702392578125	194.8078308105469	365.8917541503906	515.3165283203125	142.8294830322266	55.3678092956543	491.4940795898438	91.75585174560547	76.42121124267578	439.9236145019531	51.7059211730957	82.86562347412109	534.7207641601562	-102.9508209228516	154.1638031005859	425.7057800292969	
